<svg xmlns="http://www.w3.org/2000/svg" xmlns:xlink="http://www.w3.org/1999/xlink" viewBox="0 0 91.15 40.49"><defs><style>.cls-1{fill:url(#名称未設定グラデーション_9);}</style><linearGradient id="名称未設定グラデーション_9" y1="20.25" x2="91.15" y2="20.25" gradientUnits="userSpaceOnUse"><stop offset="0" stop-color="#fff21f"/><stop offset="0" stop-color="#ffef1c"/><stop offset="0" stop-color="#fddc0d"/><stop offset="0" stop-color="#fcd103"/><stop offset="0" stop-color="#fccd00"/><stop offset="0.05" stop-color="#f1942e"/><stop offset="0.89" stop-color="#ea652d"/><stop offset="1" stop-color="#e5352b"/></linearGradient></defs><title>logo8</title><g id="レイヤー_2" data-name="レイヤー 2"><g id="レイヤー_1-2" data-name="レイヤー 1"><path class="cls-1" d="M8.81,35.19H1.91V5.87h6.9V8a7.28,7.28,0,0,1,6-2.78,9.32,9.32,0,0,1,3.91.82,10,10,0,0,1,3.14,2.23A10.21,10.21,0,0,1,24,11.63a11,11,0,0,1,.74,4.08,10.78,10.78,0,0,1-.74,4A10.48,10.48,0,0,1,21.9,23a9.58,9.58,0,0,1-3.11,2.21,9.45,9.45,0,0,1-3.88.8,8.13,8.13,0,0,1-6.1-2.52ZM17.5,15.71A4.64,4.64,0,0,0,17.17,14a4.11,4.11,0,0,0-.93-1.43,4.76,4.76,0,0,0-1.43-1A4.38,4.38,0,0,0,13,11.21,4.28,4.28,0,0,0,9.93,12.5,5,5,0,0,0,9,13.93a4.3,4.3,0,0,0-.36,1.74A4.25,4.25,0,0,0,9,17.38a4.09,4.09,0,0,0,.95,1.39,4.73,4.73,0,0,0,1.43,1,4.3,4.3,0,0,0,1.74.36,4.23,4.23,0,0,0,3.1-1.3,4.82,4.82,0,0,0,1-1.41A4,4,0,0,0,17.5,15.71Z"/><path class="cls-1" d="M28.29,15.48a9.58,9.58,0,0,1,.87-4.06A10.09,10.09,0,0,1,31.6,8.14,11.44,11.44,0,0,1,35.32,6,13.23,13.23,0,0,1,40,5.15a13.66,13.66,0,0,1,4.67.78A11.48,11.48,0,0,1,48.43,8.1a9.6,9.6,0,0,1,2.46,3.32,10,10,0,0,1,.88,4.25,9.9,9.9,0,0,1-.9,4.25,10.09,10.09,0,0,1-2.46,3.32,11.13,11.13,0,0,1-3.75,2.15,14.34,14.34,0,0,1-4.75.76,13.66,13.66,0,0,1-4.65-.76,10.8,10.8,0,0,1-3.68-2.17,10.16,10.16,0,0,1-2.42-3.38A10.64,10.64,0,0,1,28.29,15.48Zm7.28.07a4.43,4.43,0,0,0,.36,1.81,4.76,4.76,0,0,0,1,1.43,4.3,4.3,0,0,0,1.41,1,4.46,4.46,0,0,0,1.74.34,4.41,4.41,0,0,0,1.73-.34,4.11,4.11,0,0,0,1.41-1,4.58,4.58,0,0,0,.95-1.43,4.16,4.16,0,0,0,.37-1.77,4.07,4.07,0,0,0-.37-1.73,4.58,4.58,0,0,0-.95-1.43,4.11,4.11,0,0,0-1.41-1A4.6,4.6,0,0,0,40,11.13a4.65,4.65,0,0,0-1.74.34,4.3,4.3,0,0,0-1.41,1,4.79,4.79,0,0,0-1,1.41A4.1,4.1,0,0,0,35.57,15.55Z"/><path class="cls-1" d="M56.15,5.87h6.9v3.2a7.88,7.88,0,0,1,2.71-2.68,7.22,7.22,0,0,1,3.74-.94h.59a4.36,4.36,0,0,1,.74.08v6.59a6.64,6.64,0,0,0-3-.68,4.43,4.43,0,0,0-3.61,1.43A6.32,6.32,0,0,0,63.05,17v8.39h-6.9Z"/><path class="cls-1" d="M82,11.63v13.8H75.1V11.63H72.81V5.87H75.1V0H82V5.87h3.93v5.76Z"/><path class="cls-1" d="M9.38,26v13.8H2.48V26H0V20.21H2.48V17.28a13.16,13.16,0,0,1,.46-3.89,6.87,6.87,0,0,1,1.22-2.27,8.67,8.67,0,0,1,2-1.81A9.37,9.37,0,0,1,8.54,8.13a8.2,8.2,0,0,1,2.55-.42,6.32,6.32,0,0,1,1.62.19,10.47,10.47,0,0,1,1.51.53v6a8,8,0,0,0-1.28-.52,4.53,4.53,0,0,0-1.24-.17,3.19,3.19,0,0,0-.85.13,1.81,1.81,0,0,0-.82.56,2.3,2.3,0,0,0-.52,1.2,13,13,0,0,0-.13,2.11v2.44h4.84V26Z"/><path class="cls-1" d="M16.47,29.82a9.44,9.44,0,0,1,.88-4.06,9.92,9.92,0,0,1,2.43-3.28,11.65,11.65,0,0,1,3.72-2.19,14.32,14.32,0,0,1,9.38,0,11.82,11.82,0,0,1,3.74,2.17,9.79,9.79,0,0,1,2.45,3.32,10.65,10.65,0,0,1,0,8.5,10.23,10.23,0,0,1-2.46,3.32,11,11,0,0,1-3.76,2.15,14.28,14.28,0,0,1-4.74.76,13.76,13.76,0,0,1-4.66-.76,10.66,10.66,0,0,1-3.67-2.17,10.08,10.08,0,0,1-2.42-3.37A10.53,10.53,0,0,1,16.47,29.82Zm7.28.08a4.47,4.47,0,0,0,.36,1.81,5,5,0,0,0,.95,1.43,4.52,4.52,0,0,0,4.88,1,4.22,4.22,0,0,0,1.41-1,4.85,4.85,0,0,0,1-1.43,4.39,4.39,0,0,0,.36-1.78,4.26,4.26,0,0,0-.36-1.73,4.73,4.73,0,0,0-1-1.43,4.08,4.08,0,0,0-1.41-.95,4.45,4.45,0,0,0-3.46,0,4.22,4.22,0,0,0-1.42.95,5.07,5.07,0,0,0-.95,1.41A4.14,4.14,0,0,0,23.75,29.9Z"/><path class="cls-1" d="M51.24,8.13V39.77h-6.9V8.13Z"/><path class="cls-1" d="M55.92,12.7a3.88,3.88,0,0,1,5.4-3.58,3.89,3.89,0,0,1,1.24.84,4.12,4.12,0,0,1,.84,1.24,3.93,3.93,0,0,1,0,3,4,4,0,0,1-2.08,2.08,3.93,3.93,0,0,1-3,0,4.12,4.12,0,0,1-1.24-.84,3.89,3.89,0,0,1-.84-1.24A3.81,3.81,0,0,1,55.92,12.7Zm7.36,7.51V39.77h-6.9V20.21Z"/><path class="cls-1" d="M67.67,29.82a9.58,9.58,0,0,1,.87-4.06A10.09,10.09,0,0,1,71,22.48a11.44,11.44,0,0,1,3.72-2.19,13.5,13.5,0,0,1,4.71-.8,13.66,13.66,0,0,1,4.67.78,11.66,11.66,0,0,1,3.73,2.17,9.69,9.69,0,0,1,2.46,3.32A10,10,0,0,1,91.15,30a10,10,0,0,1-3.36,7.57A11,11,0,0,1,84,39.73a14.3,14.3,0,0,1-4.75.76,13.7,13.7,0,0,1-4.65-.76A10.8,10.8,0,0,1,71,37.56a10.22,10.22,0,0,1-2.42-3.37A10.69,10.69,0,0,1,67.67,29.82ZM75,29.9a4.47,4.47,0,0,0,.36,1.81,5,5,0,0,0,1,1.43,4.37,4.37,0,0,0,3.15,1.29,4.38,4.38,0,0,0,1.73-.34,4.22,4.22,0,0,0,1.41-1,5.06,5.06,0,0,0,1-1.43,4.39,4.39,0,0,0,.36-1.78,4.26,4.26,0,0,0-.36-1.73,4.92,4.92,0,0,0-1-1.43,4.08,4.08,0,0,0-1.41-.95,4.38,4.38,0,0,0-1.73-.35,4.47,4.47,0,0,0-1.74.35,4.28,4.28,0,0,0-1.41.95,5.07,5.07,0,0,0-1,1.41A4.14,4.14,0,0,0,75,29.9Z"/></g></g></svg>