<svg xmlns="http://www.w3.org/2000/svg" xmlns:xlink="http://www.w3.org/1999/xlink" viewBox="0 0 42.12 18.71"><defs><style>.cls-1{fill:url(#名称未設定グラデーション_9);}</style><linearGradient id="名称未設定グラデーション_9" y1="9.36" x2="42.12" y2="9.36" gradientUnits="userSpaceOnUse"><stop offset="0" stop-color="#fff21f"/><stop offset="0" stop-color="#ffef1c"/><stop offset="0" stop-color="#fddc0d"/><stop offset="0" stop-color="#fcd103"/><stop offset="0" stop-color="#fccd00"/><stop offset="0.05" stop-color="#f1942e"/><stop offset="0.89" stop-color="#ea652d"/><stop offset="1" stop-color="#e5352b"/></linearGradient></defs><title>logo8_1</title><g id="レイヤー_2" data-name="レイヤー 2"><g id="レイヤー_1-2" data-name="レイヤー 1"><path class="cls-1" d="M4.07,16.26H.88V2.71H4.07v1A3.36,3.36,0,0,1,6.85,2.43a4.38,4.38,0,0,1,1.81.38,4.56,4.56,0,0,1,1.45,1,4.73,4.73,0,0,1,1,1.53,5.15,5.15,0,0,1,.34,1.89,4.92,4.92,0,0,1-.34,1.86,4.83,4.83,0,0,1-1,1.52,4.49,4.49,0,0,1-1.44,1A4.28,4.28,0,0,1,6.89,12a3.78,3.78,0,0,1-2.82-1.16Zm4-9a2.14,2.14,0,0,0-.14-.8A1.78,1.78,0,0,0,7.5,5.8a1.93,1.93,0,0,0-.66-.45A1.85,1.85,0,0,0,6,5.18a1.92,1.92,0,0,0-.79.16,1.79,1.79,0,0,0-.64.44,2.31,2.31,0,0,0-.44.66,2,2,0,0,0-.17.8A1.89,1.89,0,0,0,4.14,8a2.07,2.07,0,0,0,.44.65,2.54,2.54,0,0,0,.66.44,2,2,0,0,0,.8.16,1.89,1.89,0,0,0,.79-.16,1.83,1.83,0,0,0,.65-.44A2.13,2.13,0,0,0,7.92,8,1.83,1.83,0,0,0,8.08,7.26Z"/><path class="cls-1" d="M13.07,7.15a4.23,4.23,0,0,1,.41-1.87A4.55,4.55,0,0,1,14.6,3.76a5.25,5.25,0,0,1,1.72-1,6.12,6.12,0,0,1,2.18-.37,6.26,6.26,0,0,1,2.15.36,5.27,5.27,0,0,1,1.73,1,4.45,4.45,0,0,1,1.14,1.54,4.64,4.64,0,0,1,.4,2,4.65,4.65,0,0,1-.41,2,4.72,4.72,0,0,1-1.14,1.54,5,5,0,0,1-1.73,1,6.55,6.55,0,0,1-2.2.35,6.26,6.26,0,0,1-2.15-.35,5.06,5.06,0,0,1-1.7-1,4.83,4.83,0,0,1-1.11-1.56A4.77,4.77,0,0,1,13.07,7.15Zm3.36,0A2.14,2.14,0,0,0,17,8.68a1.83,1.83,0,0,0,.65.44,2.11,2.11,0,0,0,1.61,0A1.83,1.83,0,0,0,20,8.68,2.06,2.06,0,0,0,20.39,8a2,2,0,0,0,0-1.62A2.31,2.31,0,0,0,20,5.74a2,2,0,0,0-.65-.44,2.11,2.11,0,0,0-1.61,0,2,2,0,0,0-.65.44,2.4,2.4,0,0,0-.44.65A1.94,1.94,0,0,0,16.43,7.19Z"/><path class="cls-1" d="M26,2.71h3.18V4.19A3.73,3.73,0,0,1,30.39,3a3.3,3.3,0,0,1,1.72-.43h.27l.35,0V5.6a3,3,0,0,0-1.38-.32,2,2,0,0,0-1.66.66,3,3,0,0,0-.56,1.93v3.88H26Z"/><path class="cls-1" d="M37.89,5.37v6.38H34.7V5.37H33.64V2.71H34.7V0h3.19V2.71H39.7V5.37Z"/><path class="cls-1" d="M4.33,12v6.38H1.15V12H0V9.34H1.15V8a6.12,6.12,0,0,1,.21-1.79,3,3,0,0,1,.56-1.05,4.29,4.29,0,0,1,.91-.84A4.46,4.46,0,0,1,4,3.76a3.75,3.75,0,0,1,1.18-.2,2.83,2.83,0,0,1,.74.09,4.22,4.22,0,0,1,.7.25V6.68A3.86,3.86,0,0,0,6,6.44a2.12,2.12,0,0,0-.57-.08,1.44,1.44,0,0,0-.4.06,1,1,0,0,0-.38.26,1.12,1.12,0,0,0-.23.56,5,5,0,0,0-.07,1V9.34H6.57V12Z"/><path class="cls-1" d="M7.61,13.78A4.41,4.41,0,0,1,8,11.9a4.64,4.64,0,0,1,1.13-1.51,5.25,5.25,0,0,1,1.72-1A6.1,6.1,0,0,1,13,9a6.28,6.28,0,0,1,2.16.36,5.27,5.27,0,0,1,1.73,1,4.65,4.65,0,0,1,1.14,1.53,4.69,4.69,0,0,1-1.15,5.46,5.12,5.12,0,0,1-1.74,1,6.7,6.7,0,0,1-2.19.35,6.51,6.51,0,0,1-2.15-.35,5.08,5.08,0,0,1-1.7-1A4.71,4.71,0,0,1,8,15.8,4.92,4.92,0,0,1,7.61,13.78Zm3.36,0a2.07,2.07,0,0,0,.17.84,2.31,2.31,0,0,0,.44.66,1.83,1.83,0,0,0,.65.44,2.11,2.11,0,0,0,1.61,0,1.83,1.83,0,0,0,.65-.44,2.31,2.31,0,0,0,.44-.66,2,2,0,0,0,.17-.82,2,2,0,0,0-.17-.8,2.31,2.31,0,0,0-.44-.66,2,2,0,0,0-.65-.44,2.11,2.11,0,0,0-1.61,0,2,2,0,0,0-.65.44,2.26,2.26,0,0,0-.44.65A1.93,1.93,0,0,0,11,13.81Z"/><path class="cls-1" d="M23.67,3.76V18.38H20.49V3.76Z"/><path class="cls-1" d="M25.84,5.87a1.76,1.76,0,0,1,.53-1.27,1.92,1.92,0,0,1,.57-.39,1.82,1.82,0,0,1,.7-.14,1.77,1.77,0,0,1,.69.14,1.92,1.92,0,0,1,.57.39,1.81,1.81,0,0,1,.39.57,1.65,1.65,0,0,1,.14.7,1.65,1.65,0,0,1-.14.7,1.81,1.81,0,0,1-.39.57,1.92,1.92,0,0,1-.57.39,1.77,1.77,0,0,1-.69.14,1.82,1.82,0,0,1-.7-.14,1.92,1.92,0,0,1-.57-.39,1.76,1.76,0,0,1-.53-1.27Zm3.4,3.47v9H26.05v-9Z"/><path class="cls-1" d="M31.27,13.78a4.41,4.41,0,0,1,.4-1.88,4.64,4.64,0,0,1,1.13-1.51,5.15,5.15,0,0,1,1.72-1A6.07,6.07,0,0,1,36.69,9a6.28,6.28,0,0,1,2.16.36,5.23,5.23,0,0,1,1.72,1,4.51,4.51,0,0,1,1.14,1.53,4.73,4.73,0,0,1,.41,2,4.63,4.63,0,0,1-1.55,3.49,5.22,5.22,0,0,1-1.74,1,6.75,6.75,0,0,1-2.19.35,6.46,6.46,0,0,1-2.15-.35,5,5,0,0,1-1.7-1,4.57,4.57,0,0,1-1.12-1.55A4.92,4.92,0,0,1,31.27,13.78Zm3.36,0a2.07,2.07,0,0,0,.17.84,2.31,2.31,0,0,0,.44.66,1.83,1.83,0,0,0,.65.44,2.08,2.08,0,0,0,1.6,0,1.83,1.83,0,0,0,.65-.44,2.12,2.12,0,0,0,.44-.66,1.85,1.85,0,0,0,.17-.82,1.83,1.83,0,0,0-.17-.8,2.12,2.12,0,0,0-.44-.66,2,2,0,0,0-2.9,0,2.26,2.26,0,0,0-.44.65A1.93,1.93,0,0,0,34.63,13.81Z"/></g></g></svg>