<svg xmlns="http://www.w3.org/2000/svg" xmlns:xlink="http://www.w3.org/1999/xlink" viewBox="0 0 495.31 280.63"><defs><style>.cls-1{fill:url(#名称未設定グラデーション_9);}</style><linearGradient id="名称未設定グラデーション_9" y1="140.31" x2="495.31" y2="140.31" gradientUnits="userSpaceOnUse"><stop offset="0" stop-color="#fff21f"/><stop offset="0" stop-color="#ffef1c"/><stop offset="0" stop-color="#fddc0d"/><stop offset="0" stop-color="#fcd103"/><stop offset="0" stop-color="#fccd00"/><stop offset="0.05" stop-color="#f1942e"/><stop offset="0.89" stop-color="#ea652d"/><stop offset="1" stop-color="#e5352b"/></linearGradient></defs><title>logo8_3</title><g id="レイヤー_2" data-name="レイヤー 2"><g id="レイヤー_1-2" data-name="レイヤー 1"><path class="cls-1" d="M39.41,259.18H0V43.24H39.41v16Q52,38.76,73.81,38.75a43.44,43.44,0,0,1,22.31,6,59.49,59.49,0,0,1,18,16.42A80.28,80.28,0,0,1,126,85.64a103.39,103.39,0,0,1,4.25,30.05A100.52,100.52,0,0,1,126,145.46,82.32,82.32,0,0,1,114.2,169.6a57,57,0,0,1-17.75,16.29,43.74,43.74,0,0,1-22.21,5.9q-20.89,0-34.83-18.54ZM89.05,115.69a43.55,43.55,0,0,0-1.85-12.78,32.86,32.86,0,0,0-5.34-10.53,27.6,27.6,0,0,0-8.16-7.16,20.2,20.2,0,0,0-10.13-2.66,20,20,0,0,0-9.79,2.52,25.2,25.2,0,0,0-8,7,37.92,37.92,0,0,0-5.44,10.53,39.18,39.18,0,0,0-2.07,12.78,39.8,39.8,0,0,0,2,12.64,32.82,32.82,0,0,0,5.44,10.24,28,28,0,0,0,8.17,7,19.58,19.58,0,0,0,9.9,2.67,20,20,0,0,0,9.8-2.52,25.31,25.31,0,0,0,8-7A38.34,38.34,0,0,0,87,128.05,37.08,37.08,0,0,0,89.05,115.69Z"/><path class="cls-1" d="M147.18,114a87.3,87.3,0,0,1,5-29.91A75,75,0,0,1,166.12,60a65.28,65.28,0,0,1,21.23-16.14,61.25,61.25,0,0,1,26.89-5.9,62.3,62.3,0,0,1,26.67,5.75,64.88,64.88,0,0,1,21.33,16A73.68,73.68,0,0,1,276.29,84.1a93.72,93.72,0,0,1,5,31.31,91.69,91.69,0,0,1-5.11,31.31,76.07,76.07,0,0,1-14.05,24.43A61.43,61.43,0,0,1,240.69,187a65.38,65.38,0,0,1-27.11,5.62A62.62,62.62,0,0,1,187,187a60.32,60.32,0,0,1-21-16,76.61,76.61,0,0,1-13.82-24.85A97.47,97.47,0,0,1,147.18,114Zm41.58.56a40.83,40.83,0,0,0,2.07,13.33,37.85,37.85,0,0,0,5.44,10.54,24.83,24.83,0,0,0,8.06,7,20.73,20.73,0,0,0,19.81,0,24.83,24.83,0,0,0,8.06-7,37.85,37.85,0,0,0,5.44-10.54,39.94,39.94,0,0,0,2.07-13.05,39.13,39.13,0,0,0-2.07-12.78,37.92,37.92,0,0,0-5.44-10.53,24.83,24.83,0,0,0-8.06-7,20.65,20.65,0,0,0-19.81,0,24.83,24.83,0,0,0-8.06,7,38.34,38.34,0,0,0-5.44,10.39A37.87,37.87,0,0,0,188.76,114.57Z"/><path class="cls-1" d="M302.85,43.24h39.41V66.83q6.3-12.91,15.45-19.8a34.56,34.56,0,0,1,21.34-6.88h3.38a18.6,18.6,0,0,1,4.24.57V89.29a30.81,30.81,0,0,0-17-5.05q-13.72,0-20.58,10.53t-6.85,30.75v61.77H302.85Z"/><path class="cls-1" d="M447,85.64V187.29H407.57V85.64H394.51V43.24h13.06V0H447V43.24H469.4v42.4Z"/><path class="cls-1" d="M39.41,42.23V275.29H0V42.23Z"/><path class="cls-1" d="M62.7,202a87.54,87.54,0,0,1,5-29.91A75.18,75.18,0,0,1,81.64,148a65.28,65.28,0,0,1,21.23-16.14,61.25,61.25,0,0,1,26.89-5.9,62.24,62.24,0,0,1,26.67,5.75,64.92,64.92,0,0,1,21.34,16,73.66,73.66,0,0,1,14,24.43,93.47,93.47,0,0,1,5,31.31,91.68,91.68,0,0,1-5.12,31.31,76.05,76.05,0,0,1-14,24.43A61.38,61.38,0,0,1,156.21,275a65.33,65.33,0,0,1-27.1,5.62A62.59,62.59,0,0,1,102.55,275a60.14,60.14,0,0,1-21-16,76.81,76.81,0,0,1-13.83-24.85A97.74,97.74,0,0,1,62.7,202Zm41.59.56a40.57,40.57,0,0,0,2.07,13.33,37.58,37.58,0,0,0,5.44,10.54,24.65,24.65,0,0,0,8,7,20.67,20.67,0,0,0,19.82,0,24.65,24.65,0,0,0,8.05-7,38.13,38.13,0,0,0,5.45-10.54,40.2,40.2,0,0,0,2.06-13.05,39.39,39.39,0,0,0-2.06-12.78,38.21,38.21,0,0,0-5.45-10.53,24.8,24.8,0,0,0-8.05-7,20.67,20.67,0,0,0-19.82,0,24.8,24.8,0,0,0-8,7,38.06,38.06,0,0,0-5.44,10.39A37.62,37.62,0,0,0,104.29,202.57Z"/><path class="cls-1" d="M277.16,42.23V275.29H237.75V42.23Z"/><path class="cls-1" d="M342.25,42.23V275.29h-39.4V42.23Z"/><path class="cls-1" d="M361.19,202a87.54,87.54,0,0,1,5-29.91A75,75,0,0,1,380.14,148a65.24,65.24,0,0,1,21.22-16.14,61.29,61.29,0,0,1,26.89-5.9,62.24,62.24,0,0,1,26.67,5.75,64.81,64.81,0,0,1,21.34,16,73.66,73.66,0,0,1,14,24.43,93.47,93.47,0,0,1,5,31.31,91.68,91.68,0,0,1-5.12,31.31,76.05,76.05,0,0,1-14,24.43A61.43,61.43,0,0,1,454.71,275a65.41,65.41,0,0,1-27.11,5.62A62.59,62.59,0,0,1,401,275a60.32,60.32,0,0,1-21-16,76.81,76.81,0,0,1-13.83-24.85A97.74,97.74,0,0,1,361.19,202Zm41.59.56a40.83,40.83,0,0,0,2.07,13.33,37.85,37.85,0,0,0,5.44,10.54,24.58,24.58,0,0,0,8.06,7,20.65,20.65,0,0,0,19.81,0,24.78,24.78,0,0,0,8.06-7,38.11,38.11,0,0,0,5.44-10.54,39.94,39.94,0,0,0,2.07-13.05,39.13,39.13,0,0,0-2.07-12.78,38.19,38.19,0,0,0-5.44-10.53,24.93,24.93,0,0,0-8.06-7,20.65,20.65,0,0,0-19.81,0,24.73,24.73,0,0,0-8.06,7,38.34,38.34,0,0,0-5.44,10.39A37.87,37.87,0,0,0,402.78,202.57Z"/></g></g></svg>