<svg xmlns="http://www.w3.org/2000/svg" xmlns:xlink="http://www.w3.org/1999/xlink" viewBox="0 0 70.02 73.35"><defs><style>.cls-1{fill:url(#名称未設定グラデーション);}.cls-2{font-size:46.48px;fill:#e4b600;stroke:#231815;stroke-miterlimit:10;stroke-width:2px;font-family:Futura-Medium, Futura;font-weight:500;letter-spacing:-0.08em;}.cls-3{letter-spacing:-0.02em;}.cls-4{letter-spacing:-0.02em;}.cls-5{letter-spacing:-0.06em;}.cls-6{letter-spacing:-0.08em;}</style><linearGradient id="名称未設定グラデーション" y1="36.67" x2="85.29" y2="36.67" gradientUnits="userSpaceOnUse"><stop offset="0" stop-color="#fff"/><stop offset="1"/></linearGradient></defs><title>web-icon1</title><g id="レイヤー_2" data-name="レイヤー 2"><g id="レイヤー_1-2" data-name="レイヤー 1"><path class="cls-1" d="M8.18,54H3.78V19.83h4.4v2.4a7.7,7.7,0,0,1,5.91-3,7.81,7.81,0,0,1,6.48,3.36A13.37,13.37,0,0,1,23.15,31a13.13,13.13,0,0,1-2.56,8.29,7.82,7.82,0,0,1-6.42,3.29,7.75,7.75,0,0,1-6-3.11ZM18.65,31a8.46,8.46,0,0,0-1.48-5.18,4.59,4.59,0,0,0-3.8-2,4.76,4.76,0,0,0-3.94,1.95,8.21,8.21,0,0,0-1.5,5.13A8.35,8.35,0,0,0,9.43,36a4.68,4.68,0,0,0,3.92,2,4.55,4.55,0,0,0,3.78-2A8,8,0,0,0,18.65,31Z"/><path class="cls-1" d="M23.83,30.72a11.91,11.91,0,0,1,3-8.15,9.41,9.41,0,0,1,14.44,0,12.2,12.2,0,0,1,2.94,8.3,12.15,12.15,0,0,1-3,8.33,9.38,9.38,0,0,1-7.3,3.34,9.07,9.07,0,0,1-7.18-3.41A12.44,12.44,0,0,1,23.83,30.72Zm4.5.09a8.24,8.24,0,0,0,1.52,5.25,5.37,5.37,0,0,0,8.26,0,8,8,0,0,0,1.55-5.15,8,8,0,0,0-1.55-5.16,5.31,5.31,0,0,0-8.22,0A7.84,7.84,0,0,0,28.33,30.81Z"/><path class="cls-1" d="M45.73,19.83h4.4v2a8.93,8.93,0,0,1,2.16-2,4.32,4.32,0,0,1,2.27-.57,6.44,6.44,0,0,1,3.64,1.32l-2,4.68a3.84,3.84,0,0,0-2.45-1.05c-2.4,0-3.6,2.11-3.6,6.31V41.93h-4.4Z"/><path class="cls-1" d="M64.46,24.59V41.93h-4.4V24.59H58.18V19.83h1.88V11.72h4.4v8.11h3.42v4.76Z"/><path class="cls-1" d="M8.34,41.59V58.93H3.92V41.59H2.35V36.83H3.92V28.29c0-2.78.41-4.75,1.25-5.9a5.79,5.79,0,0,1,5-2.4,7.56,7.56,0,0,1,3,.79V26l-.45-.27a5,5,0,0,0-2.35-.84,1.55,1.55,0,0,0-1.58,1,11,11,0,0,0-.41,3.68v7.29h4.79v4.76Z"/><path class="cls-1" d="M12.29,47.72a11.92,11.92,0,0,1,3-8.15,9.41,9.41,0,0,1,14.44,0,12.2,12.2,0,0,1,2.94,8.3,12.15,12.15,0,0,1-3,8.33,9.39,9.39,0,0,1-7.3,3.34,9.06,9.06,0,0,1-7.18-3.41A12.45,12.45,0,0,1,12.29,47.72Zm4.5.09a8.24,8.24,0,0,0,1.53,5.25A5,5,0,0,0,22.45,55a5,5,0,0,0,4.13-1.93,8,8,0,0,0,1.54-5.15,8,8,0,0,0-1.54-5.16,5,5,0,0,0-4.13-2,5,5,0,0,0-4.09,2A7.79,7.79,0,0,0,16.79,47.81Z"/><path class="cls-1" d="M39.2,20.6V58.93H34.8V20.6Z"/><path class="cls-1" d="M41,27.63a3.42,3.42,0,0,1,.84-2.31,2.57,2.57,0,0,1,2-1,2.6,2.6,0,0,1,2,1,3.41,3.41,0,0,1,.84,2.34A3.5,3.5,0,0,1,45.92,30a2.54,2.54,0,0,1-2,1,2.59,2.59,0,0,1-2-1A3.54,3.54,0,0,1,41,27.63Zm5.07,9.2v22.1H41.69V36.83Z"/><path class="cls-1" d="M47.69,47.72a11.91,11.91,0,0,1,3-8.15,9.42,9.42,0,0,1,14.45,0A12.24,12.24,0,0,1,68,47.9a12.14,12.14,0,0,1-3,8.33,9.41,9.41,0,0,1-7.3,3.34,9.09,9.09,0,0,1-7.19-3.41A12.44,12.44,0,0,1,47.69,47.72Zm4.5.09a8.24,8.24,0,0,0,1.53,5.25,5.36,5.36,0,0,0,8.25,0,8,8,0,0,0,1.55-5.15A8,8,0,0,0,62,42.77a5.31,5.31,0,0,0-8.22,0A7.84,7.84,0,0,0,52.19,47.81Z"/><text class="cls-2" transform="translate(1 41.93) scale(0.86 1)">po<tspan class="cls-3" x="48.65" y="0">r</tspan><tspan class="cls-4" x="65.11" y="0">t</tspan><tspan class="cls-5"><tspan x="0" y="17">fo</tspan><tspan class="cls-6" x="35.98" y="17">lio</tspan></tspan></text></g></g></svg>